<svg width="128" height="128" viewBox="0 0 128 128" fill="none" xmlns="http://www.w3.org/2000/svg">
<path d="M4.02702e-08 122.657C1.72729 122.739 3.49196 122.78 5.294 122.78C13.3633 122.78 20.958 122.009 28.078 120.466C35.198 118.805 42.1993 116.372 49.082 113.168V83.976C49.082 80.5347 49.438 77.8647 50.15 75.966C50.862 74.0673 51.9893 72.7027 53.532 71.872C55.1933 71.0413 57.2107 70.626 59.584 70.626H61.898V61.192H6.006V70.626H8.32001C11.168 70.626 13.482 71.0413 15.262 71.872C17.1607 72.584 18.5847 73.8893 19.534 75.788C20.4833 77.568 20.958 80.06 20.958 83.264V109.43C18.9407 109.905 16.8047 110.261 14.55 110.498C12.414 110.617 10.2187 110.676 7.964 110.676C5.14413 110.676 2.48946 110.483 3.94218e-08 110.098L1.14174e-07 3.85112C1.79749 3.63037 3.68082 3.52 5.65 3.52C10.7527 3.52 14.906 4.588 18.11 6.724C21.314 8.74133 23.6873 11.5893 25.23 15.268C26.8913 18.828 27.722 23.0407 27.722 27.906C35.198 27.906 40.894 26.4227 44.81 23.456C48.726 20.4893 50.684 16.9293 50.684 12.776C50.684 8.85999 49.0227 5.35932 45.7 2.27399C44.8362 1.47188 43.8601 0.713884 42.7717 0L90.7239 1.24184e-08C87.0186 2.4936 83.9102 5.50627 81.3987 9.038C77.6014 14.378 75.7027 20.6673 75.7027 27.906C75.7027 32.2967 76.2367 36.3313 77.3047 40.01C78.4914 43.57 80.3901 46.952 83.0007 50.156C85.6114 53.2413 89.0527 56.1487 93.3247 58.878C97.5967 61.6073 102.818 64.218 108.989 66.71C115.634 69.4393 121.152 72.05 125.543 74.542C126.405 75.0083 127.224 75.486 128 75.9752V109.895C124.854 111.365 121.069 112.1 116.643 112.1C111.896 112.1 107.683 110.973 104.005 108.718C100.326 106.345 97.4187 102.903 95.2827 98.394C93.2654 93.766 92.2567 88.07 92.2567 81.306C88.8154 81.306 85.5521 81.84 82.4667 82.908C79.3814 83.976 76.8894 85.756 74.9907 88.248C73.0921 90.6213 72.1427 93.8253 72.1427 97.86C72.1427 100.708 72.7954 103.615 74.1007 106.582C75.5247 109.549 77.8387 112.278 81.0427 114.77C84.2467 117.143 88.5187 119.101 93.8587 120.644C99.1987 122.068 105.844 122.78 113.795 122.78C118.877 122.78 123.613 122.338 128 121.453V128H0L4.02702e-08 122.657Z" fill="#058ED9"/>
<path d="M128 45.9761V7.59435C127.837 7.42084 127.67 7.24939 127.501 7.07999C124.771 4.35066 121.093 2.98599 116.465 2.98599C113.261 2.98599 110.294 3.63866 107.565 4.944C104.954 6.13067 102.818 7.96999 101.157 10.462C99.6141 12.8353 98.8427 15.802 98.8427 19.362C98.8427 22.6847 99.6141 25.77 101.157 28.618C102.699 31.466 105.607 34.314 109.879 37.162C114.113 39.8669 120.153 42.805 128 45.9761Z" fill="#058ED9"/>
</svg>
