<svg width="128" height="126" viewBox="0 0 128 126" fill="none" xmlns="http://www.w3.org/2000/svg">
<path fill-rule="evenodd" clip-rule="evenodd" d="M128 15.4663C127.837 15.2928 127.67 15.1214 127.501 14.952C124.771 12.2227 121.093 10.858 116.465 10.858C113.261 10.858 110.294 11.5107 107.565 12.816C104.954 14.0027 102.818 15.842 101.157 18.334C99.6141 20.7073 98.8428 23.674 98.8428 27.234C98.8428 30.5567 99.6141 33.642 101.157 36.49C102.699 39.338 105.607 42.186 109.879 45.034C114.113 47.7389 120.153 50.677 128 53.8481V83.8471C127.224 83.358 126.405 82.8803 125.543 82.414C121.152 79.922 115.634 77.3113 108.989 74.582C102.818 72.09 97.5968 69.4793 93.3248 66.75C89.0528 64.0207 85.6114 61.1133 83.0008 58.028C80.3901 54.824 78.4914 51.442 77.3048 47.882C76.2368 44.2033 75.7028 40.1687 75.7028 35.778C75.7028 28.5393 77.6014 22.25 81.3988 16.91C85.1961 11.57 90.3581 7.41666 96.8848 4.44999C103.53 1.48333 111.006 0 119.313 0C122.407 0 125.303 0.117906 128 0.353719V15.4663ZM128 117.767V125.872H86.6093C84.4902 124.898 82.6347 123.821 81.0428 122.642C77.8388 120.15 75.5248 117.421 74.1008 114.454C72.7954 111.487 72.1428 108.58 72.1428 105.732C72.1428 101.697 73.0921 98.4933 74.9908 96.12C76.8895 93.628 79.3814 91.848 82.4668 90.78C85.5521 89.712 88.8154 89.178 92.2568 89.178C92.2568 95.942 93.2654 101.638 95.2828 106.266C97.4188 110.775 100.326 114.217 104.005 116.59C107.683 118.845 111.896 119.972 116.643 119.972C121.069 119.972 124.854 119.237 128 117.767ZM36.8786 125.872H0V117.97C2.48947 118.355 5.14415 118.548 7.96404 118.548C10.2187 118.548 12.414 118.489 14.55 118.37C16.8047 118.133 18.9407 117.777 20.958 117.302V91.136C20.958 87.932 20.4834 85.44 19.534 83.66C18.5847 81.7613 17.1607 80.456 15.262 79.744C13.482 78.9133 11.168 78.498 8.32005 78.498H6.00604V69.064H61.898V78.498H59.5841C57.2107 78.498 55.1934 78.9133 53.532 79.744C51.9894 80.5747 50.862 81.9393 50.15 83.838C49.438 85.7367 49.082 88.4067 49.082 91.848V121.04C45.0549 122.915 40.9871 124.525 36.8786 125.872ZM0 11.7231V0.177573C2.01349 0.059191 4.07484 0 6.18404 0C16.0334 0 24.2214 0.949333 30.748 2.848C37.3934 4.628 42.3774 7.06066 45.7 10.146C49.0227 13.2313 50.684 16.732 50.684 20.648C50.684 24.8013 48.726 28.3613 44.81 31.328C40.894 34.2947 35.1981 35.778 27.722 35.778C27.722 30.9127 26.8914 26.7 25.23 23.14C23.6874 19.4613 21.314 16.6133 18.11 14.596C14.906 12.46 10.7527 11.392 5.65004 11.392C3.68084 11.392 1.7975 11.5024 0 11.7231Z" fill="#058ED9"/>
</svg>
